<svg xmlns="http://www.w3.org/2000/svg" width="1200" height="900" viewBox="0 0 1200 900">
  <rect width="1200" height="900" fill="#f5f3ef"/>
  <rect x="0" y="0" width="1200" height="72" fill="#f5f3ef" stroke="#ded8cf"/>
  <text x="60" y="45" font-family="Arial, sans-serif" font-size="24" font-weight="700" fill="#181714">LUMA GOODS</text>
  <text x="630" y="43" font-family="Arial, sans-serif" font-size="15" fill="#69645d">New</text>
  <text x="685" y="43" font-family="Arial, sans-serif" font-size="15" fill="#69645d">Shop</text>
  <text x="742" y="43" font-family="Arial, sans-serif" font-size="15" fill="#69645d">About</text>
  <rect x="1050" y="18" width="94" height="38" rx="19" fill="none" stroke="#181714"/>
  <text x="1071" y="42" font-family="Arial, sans-serif" font-size="14" fill="#181714">Cart 2</text>

  <text x="60" y="130" font-family="Arial, sans-serif" font-size="12" letter-spacing="2" fill="#69645d">LOCAL PROOF OF CONCEPT</text>
  <text x="60" y="202" font-family="Arial, sans-serif" font-size="58" font-weight="700" fill="#181714">Clean commerce flow,</text>
  <text x="60" y="265" font-family="Arial, sans-serif" font-size="58" font-weight="700" fill="#181714">built for mobile first.</text>
  <text x="760" y="190" font-family="Arial, sans-serif" font-size="16" fill="#69645d">WooCommerce-style first slice:</text>
  <text x="760" y="220" font-family="Arial, sans-serif" font-size="16" fill="#69645d">catalog, cart quantities, totals,</text>
  <text x="760" y="250" font-family="Arial, sans-serif" font-size="16" fill="#69645d">and checkout handoff.</text>

  <text x="60" y="350" font-family="Arial, sans-serif" font-size="28" font-weight="700" fill="#181714">Featured products</text>
  <rect x="880" y="320" width="50" height="34" rx="17" fill="#181714"/>
  <text x="895" y="342" font-family="Arial, sans-serif" font-size="12" fill="#ffffff">All</text>
  <rect x="938" y="320" width="66" height="34" rx="17" fill="none" stroke="#ded8cf"/>
  <text x="953" y="342" font-family="Arial, sans-serif" font-size="12" fill="#69645d">Home</text>
  <rect x="1012" y="320" width="66" height="34" rx="17" fill="none" stroke="#ded8cf"/>
  <text x="1026" y="342" font-family="Arial, sans-serif" font-size="12" fill="#69645d">Carry</text>

  <g transform="translate(60 382)">
    <rect width="300" height="400" rx="18" fill="#ffffff" stroke="#ded8cf"/>
    <rect x="1" y="1" width="298" height="220" rx="17" fill="#cfc3b4"/>
    <text x="117" y="133" font-family="Arial, sans-serif" font-size="52" font-weight="700" fill="#181714">01</text>
    <text x="20" y="258" font-family="Arial, sans-serif" font-size="18" font-weight="700" fill="#181714">Linen Set</text>
    <text x="245" y="258" font-family="Arial, sans-serif" font-size="17" font-weight="700" fill="#181714">$68</text>
    <text x="20" y="289" font-family="Arial, sans-serif" font-size="13" fill="#69645d">Simple hierarchy, clear price,</text>
    <text x="20" y="310" font-family="Arial, sans-serif" font-size="13" fill="#69645d">quick purchase path.</text>
    <rect x="20" y="334" width="260" height="46" rx="12" fill="#181714"/>
    <text x="103" y="362" font-family="Arial, sans-serif" font-size="14" fill="#ffffff">Add to cart</text>
  </g>

  <g transform="translate(378 382)">
    <rect width="300" height="400" rx="18" fill="#ffffff" stroke="#ded8cf"/>
    <rect x="1" y="1" width="298" height="220" rx="17" fill="#98aa99"/>
    <text x="117" y="133" font-family="Arial, sans-serif" font-size="52" font-weight="700" fill="#181714">02</text>
    <text x="20" y="258" font-family="Arial, sans-serif" font-size="18" font-weight="700" fill="#181714">Weekend Bag</text>
    <text x="245" y="258" font-family="Arial, sans-serif" font-size="17" font-weight="700" fill="#181714">$92</text>
    <text x="20" y="289" font-family="Arial, sans-serif" font-size="13" fill="#69645d">Responsive product card ready</text>
    <text x="20" y="310" font-family="Arial, sans-serif" font-size="13" fill="#69645d">for WooCommerce data.</text>
    <rect x="20" y="334" width="260" height="46" rx="12" fill="#181714"/>
    <text x="103" y="362" font-family="Arial, sans-serif" font-size="14" fill="#ffffff">Add to cart</text>
  </g>

  <g transform="translate(696 382)">
    <rect width="300" height="400" rx="18" fill="#ffffff" stroke="#ded8cf"/>
    <rect x="1" y="1" width="298" height="220" rx="17" fill="#aaa5b4"/>
    <text x="117" y="133" font-family="Arial, sans-serif" font-size="52" font-weight="700" fill="#181714">03</text>
    <text x="20" y="258" font-family="Arial, sans-serif" font-size="18" font-weight="700" fill="#181714">Ceramic Set</text>
    <text x="245" y="258" font-family="Arial, sans-serif" font-size="17" font-weight="700" fill="#181714">$54</text>
    <text x="20" y="289" font-family="Arial, sans-serif" font-size="13" fill="#69645d">Reusable collection and product</text>
    <text x="20" y="310" font-family="Arial, sans-serif" font-size="13" fill="#69645d">pattern with mobile layout.</text>
    <rect x="20" y="334" width="260" height="46" rx="12" fill="#181714"/>
    <text x="103" y="362" font-family="Arial, sans-serif" font-size="14" fill="#ffffff">Add to cart</text>
  </g>

  <g transform="translate(835 105)">
    <rect width="315" height="360" rx="18" fill="#ffffff" stroke="#ded8cf"/>
    <text x="22" y="38" font-family="Arial, sans-serif" font-size="18" font-weight="700" fill="#181714">Your cart</text>
    <line x1="0" y1="58" x2="315" y2="58" stroke="#ded8cf"/>
    <text x="22" y="92" font-family="Arial, sans-serif" font-size="15" font-weight="700" fill="#181714">Linen Set</text>
    <text x="22" y="114" font-family="Arial, sans-serif" font-size="12" fill="#69645d">$68 each</text>
    <rect x="225" y="82" width="28" height="28" rx="7" fill="#ece7df"/>
    <text x="235" y="102" font-family="Arial, sans-serif" font-size="15" fill="#181714">−</text>
    <text x="262" y="102" font-family="Arial, sans-serif" font-size="13" fill="#181714">2</text>
    <rect x="278" y="82" width="28" height="28" rx="7" fill="#ece7df"/>
    <text x="287" y="102" font-family="Arial, sans-serif" font-size="15" fill="#181714">+</text>
    <line x1="22" y1="140" x2="293" y2="140" stroke="#ded8cf"/>
    <text x="22" y="178" font-family="Arial, sans-serif" font-size="13" fill="#69645d">Subtotal</text>
    <text x="248" y="178" font-family="Arial, sans-serif" font-size="13" font-weight="700" fill="#181714">$136</text>
    <text x="22" y="204" font-family="Arial, sans-serif" font-size="13" fill="#69645d">Shipping</text>
    <text x="263" y="204" font-family="Arial, sans-serif" font-size="13" font-weight="700" fill="#181714">Free</text>
    <text x="22" y="237" font-family="Arial, sans-serif" font-size="17" font-weight="700" fill="#181714">Total</text>
    <text x="249" y="237" font-family="Arial, sans-serif" font-size="17" font-weight="700" fill="#181714">$136</text>
    <rect x="22" y="263" width="271" height="48" rx="12" fill="#181714"/>
    <text x="91" y="293" font-family="Arial, sans-serif" font-size="14" fill="#ffffff">Continue to checkout</text>
    <text x="22" y="338" font-family="Arial, sans-serif" font-size="11" fill="#69645d">Local proof, no production access used.</text>
  </g>

  <text x="60" y="846" font-family="Arial, sans-serif" font-size="13" fill="#69645d">Tested locally: cart count, quantity controls, subtotal, free-shipping threshold, category filter, checkout handoff, 390 px mobile layout.</text>
</svg>